<?xml version="1.0" encoding="UTF-8" standalone="no"?><!DOCTYPE svg PUBLIC "-//W3C//DTD SVG 1.1//EN" "http://www.w3.org/Graphics/SVG/1.1/DTD/svg11.dtd"><svg width="100%" height="100%" viewBox="0 0 1280 720" version="1.1" xmlns="http://www.w3.org/2000/svg" xmlns:xlink="http://www.w3.org/1999/xlink" xml:space="preserve" xmlns:serif="http://www.serif.com/" style="fill-rule:evenodd;clip-rule:evenodd;stroke-linejoin:round;stroke-miterlimit:2;"><g><g transform="matrix(1.25541,0,0,1.25541,-568.760835,7.180965)"><g><g transform="matrix(218.92582,0,0,218.92582,449.478548,521.79538)"><path d="M0.57,0.038c0.011,-0.01 0.018,-0.026 0.019,-0.04c0,-0.013 -0.005,-0.026 -0.011,-0.037c-0.01,-0.016 -0.015,-0.089 -0.016,-0.107c-0.005,-0.051 -0.009,-0.101 -0.013,-0.152c0.009,0 0.017,-0.001 0.026,-0.002c0.043,-0.003 0.072,-0.043 0.06,-0.082c-0.008,-0.03 -0.039,-0.05 -0.072,-0.047c-0.008,0.001 -0.016,0.002 -0.024,0.003c-0.006,-0.067 -0.013,-0.134 -0.026,-0.201c-0.003,-0.018 -0.008,-0.035 -0.013,-0.053c-0.013,-0.042 -0.061,-0.064 -0.105,-0.049c-0.02,0.007 -0.038,0.022 -0.052,0.038c-0.071,0.079 -0.12,0.174 -0.161,0.27c-0.011,0.025 -0.021,0.051 -0.031,0.077c-0.035,0.009 -0.069,0.017 -0.103,0.028c-0.006,0.002 -0.011,0.006 -0.017,0.009c-0.023,0.014 -0.018,0.047 0.008,0.053c0.005,0.002 0.01,0.004 0.015,0.004c0.021,0.001 0.043,0.001 0.064,-0.001c-0.009,0.027 -0.018,0.054 -0.025,0.082c-0.011,0.037 -0.02,0.076 -0.023,0.114c-0.001,0.017 -0.003,0.034 0.003,0.049c0.009,0.022 0.04,0.023 0.055,0.004c0.005,-0.006 0.01,-0.013 0.014,-0.02c0.034,-0.073 0.057,-0.151 0.089,-0.225c0.003,-0.006 0.006,-0.012 0.009,-0.018c0.051,-0.007 0.102,-0.013 0.154,-0.019c0.003,0.056 0.007,0.112 0.012,0.167c0.003,0.031 0.004,0.062 0.011,0.093c0.005,0.022 0.014,0.045 0.031,0.061c0.031,0.033 0.09,0.033 0.122,0.001Zm-0.188,-0.571c0,0.02 0.002,0.04 0.003,0.06c0.001,0.024 0.002,0.049 0.003,0.073c-0.032,0.008 -0.064,0.015 -0.095,0.023c0.026,-0.053 0.056,-0.106 0.089,-0.156Z" style="fill:#60d752;fill-rule:nonzero;"/></g><g transform="matrix(218.92582,0,0,218.92582,594.188515,521.79538)"><path d="M0.172,0.047c0.006,-0.005 0.012,-0.011 0.017,-0.018c0.014,-0.026 0.014,-0.058 0.013,-0.087c-0.002,-0.05 -0.004,-0.099 -0.004,-0.149c0.026,0.017 0.054,0.032 0.083,0.043c0.027,0.01 0.057,0.021 0.085,0.012c0.01,-0.003 0.019,-0.009 0.027,-0.017c0.013,-0.011 0.018,-0.034 0.012,-0.05c-0.006,-0.014 -0.016,-0.028 -0.03,-0.035c-0.02,-0.009 -0.042,-0.012 -0.064,-0.014c-0.03,-0.003 -0.061,-0.011 -0.089,-0.025c0.025,-0.016 0.049,-0.031 0.073,-0.049c0.047,-0.035 0.087,-0.079 0.121,-0.127c0.018,-0.025 0.031,-0.062 0.006,-0.08c-0.01,-0.007 -0.026,-0.007 -0.037,-0.001c-0.023,0.01 -0.04,0.03 -0.059,0.046c-0.04,0.035 -0.084,0.064 -0.129,0.092c0,-0.03 -0.001,-0.06 -0.002,-0.09c-0.002,-0.058 -0.003,-0.2 -0.049,-0.234c-0.019,-0.014 -0.046,-0.012 -0.058,0.008c-0.004,0.007 -0.009,0.039 -0.009,0.047c-0.005,0.062 -0.007,0.124 -0.011,0.186c-0.01,0.148 -0.018,0.296 -0.012,0.444c0.001,0.028 0.004,0.059 0.02,0.082c0.022,0.032 0.065,0.039 0.096,0.016Z" style="fill:#60d752;fill-rule:nonzero;"/></g><g transform="matrix(218.92582,0,0,218.92582,695.332244,521.79538)"><path d="M0.405,-0.31c0.018,0.103 0.078,0.211 0.178,0.184c0.11,-0.029 0.103,-0.176 -0.011,-0.169c-0.027,-0.077 -0.02,-0.162 -0.037,-0.243c-0.017,-0.075 -0.099,-0.076 -0.139,-0.009c-0.063,0.104 -0.118,0.212 -0.186,0.313c-0.019,0.028 -0.032,0.052 -0.043,0.02c-0.023,-0.072 -0.014,-0.149 -0.016,-0.224c-0.001,-0.025 0.003,-0.087 -0.018,-0.102c-0.022,-0.016 -0.052,-0.004 -0.065,0.021c-0.025,0.046 -0.033,0.228 -0.032,0.28c0.002,0.071 0.037,0.164 0.105,0.184c0.119,0.037 0.203,-0.146 0.264,-0.255Z" style="fill:#60d752;fill-rule:nonzero;"/></g><g transform="matrix(218.92582,0,0,218.92582,934.180314,521.79538)"><path d="M0.53,-0.014c0.021,-0.028 0.02,-0.081 -0.001,-0.108c-0.001,-0.001 -0.006,-0.006 -0.006,-0.008c-0.014,-0.067 -0.013,-0.137 -0.012,-0.206c0,-0.019 -0.001,-0.037 -0.001,-0.056c0.002,-0.074 0.008,-0.148 0.012,-0.222c0.003,-0.049 0.006,-0.097 0.005,-0.146c0,-0.007 -0.005,-0.029 -0.009,-0.035c-0.004,-0.007 -0.011,-0.013 -0.018,-0.016c-0.02,-0.009 -0.042,0.005 -0.051,0.024c-0.01,0.02 -0.014,0.043 -0.019,0.065c-0.019,0.078 -0.029,0.158 -0.044,0.236c-0.001,0.006 -0.002,0.012 -0.003,0.018c-0.039,0.013 -0.077,0.029 -0.115,0.043c-0.021,0.008 -0.042,0.015 -0.063,0.022c-0.001,-0.049 0,-0.098 -0.004,-0.146c-0.001,-0.023 -0.002,-0.048 -0.014,-0.067c-0.013,-0.021 -0.042,-0.024 -0.059,-0.006c-0.021,0.023 -0.033,0.121 -0.037,0.152c-0.004,0.035 -0.008,0.07 -0.011,0.106c-0.011,0.003 -0.022,0.006 -0.034,0.009c-0.024,0.007 -0.022,0.043 0.004,0.047c0.008,0.001 0.017,0.001 0.025,0.001c-0.004,0.059 -0.005,0.118 -0.002,0.177c0.001,0.019 0.003,0.039 0.011,0.056c0.01,0.018 0.026,0.035 0.045,0.042c0.043,0.014 0.087,-0.013 0.094,-0.057c0.002,-0.017 0.001,-0.035 -0.002,-0.052c-0.006,-0.054 -0.008,-0.11 -0.012,-0.165c-0.001,-0.006 -0.001,-0.013 -0.002,-0.019c0.036,-0.007 0.072,-0.017 0.107,-0.026c0.012,-0.003 0.033,-0.008 0.055,-0.014c-0.009,0.074 -0.016,0.149 -0.015,0.224c0.001,0.034 0.001,0.069 0.014,0.101c0.013,0.034 0.047,0.058 0.085,0.06c0.031,0.002 0.06,-0.011 0.077,-0.034Z" style="fill:#60d752;fill-rule:nonzero;"/></g><g transform="matrix(218.92582,0,0,218.92582,1064.222251,521.79538)"><path d="M0.551,-0.09c0.04,-0.044 0.046,-0.135 -0.025,-0.125c-0.103,0.016 -0.041,-0.108 -0.041,-0.164c0.001,-0.062 -0.079,-0.091 -0.114,-0.039c-0.056,0.083 -0.102,0.18 -0.184,0.237c-0.017,0.011 -0.042,0.023 -0.044,0.003c-0.01,-0.099 0.112,-0.243 0.197,-0.296c0.027,-0.017 0.073,-0.037 0.098,-0.017c0.019,0.016 0.043,-0.013 0.028,-0.033c-0.022,-0.03 -0.069,-0.037 -0.107,-0.038c-0.173,-0.003 -0.313,0.183 -0.333,0.356c-0.008,0.072 0.023,0.147 0.095,0.154c0.079,0.006 0.15,-0.065 0.2,-0.125c0.004,0.123 0.147,0.178 0.23,0.087Z" style="fill:#60d752;fill-rule:nonzero;"/></g><g transform="matrix(218.92582,0,0,218.92582,1195.139891,521.79538)"><path d="M0.456,0.01c0.011,-0.003 0.021,-0.008 0.029,-0.015c0.019,-0.015 0.032,-0.045 0.024,-0.067c0,-0.003 -0.007,-0.016 -0.007,-0.019c-0.016,-0.056 -0.015,-0.116 -0.015,-0.174c0.001,-0.091 0.007,-0.182 0.012,-0.274c0.002,-0.036 0.006,-0.072 0.008,-0.108c0.002,-0.029 0.008,-0.057 0.004,-0.086l0,-0.003c0.001,-0.01 0,-0.022 -0.005,-0.031c-0.005,-0.009 -0.012,-0.018 -0.021,-0.023c-0.01,-0.004 -0.021,-0.009 -0.032,-0.007c-0.013,0.002 -0.028,0.007 -0.037,0.018c-0.003,0.004 -0.006,0.009 -0.009,0.014c-0.008,0.012 -0.016,0.024 -0.021,0.038c-0.01,0.032 -0.018,0.066 -0.022,0.1c-0.006,0.048 -0.012,0.097 -0.017,0.146c-0.069,-0.02 -0.161,0.009 -0.215,0.053c-0.043,0.034 -0.075,0.084 -0.094,0.135c-0.009,0.023 -0.016,0.049 -0.014,0.074c0.002,0.022 0.012,0.044 0.026,0.061c0.017,0.02 0.041,0.034 0.066,0.041c0.036,0.011 0.076,0.005 0.111,-0.007c0.037,-0.012 0.07,-0.032 0.103,-0.053c0.001,0.034 0.004,0.068 0.012,0.101c0.005,0.024 0.016,0.047 0.033,0.064c0.022,0.022 0.05,0.03 0.081,0.022Zm-0.216,-0.375c0.029,-0.017 0.064,-0.024 0.098,-0.025c-0.003,0.028 -0.004,0.056 -0.005,0.084c-0.035,0.012 -0.069,0.025 -0.104,0.036c-0.115,0.039 -0.044,-0.063 0.011,-0.095Z" style="fill:#60d752;fill-rule:nonzero;"/></g><g transform="matrix(218.92582,0,0,218.92582,1318.176202,521.79538)"><path d="M0.153,-0.599c0.019,-0.002 0.039,-0.011 0.053,-0.024c0.04,-0.035 0.065,-0.1 0.035,-0.144c-0.012,-0.017 -0.033,-0.029 -0.054,-0.031c-0.016,-0.001 -0.034,0.003 -0.048,0.011c-0.016,0.009 -0.03,0.022 -0.04,0.038c-0.005,0.007 -0.007,0.017 -0.012,0.025c-0.01,0.016 -0.017,0.035 -0.017,0.053c-0.001,0.044 0.039,0.077 0.083,0.072Zm0.067,0.489c0,-0.012 -0.004,-0.023 -0.007,-0.034c-0.012,-0.049 -0.009,-0.1 -0.007,-0.15c0.002,-0.057 0.011,-0.115 0.006,-0.172c-0.001,-0.017 -0.006,-0.035 -0.016,-0.049c-0.021,-0.029 -0.061,-0.035 -0.09,-0.014c-0.014,0.01 -0.024,0.027 -0.029,0.043c-0.007,0.022 -0.011,0.045 -0.014,0.068c-0.012,0.089 -0.023,0.179 -0.013,0.268c0.003,0.032 0.015,0.065 0.036,0.09c0.013,0.014 0.033,0.023 0.052,0.026c0.046,0.007 0.082,-0.031 0.082,-0.076Z" style="fill:#60d752;fill-rule:nonzero;"/></g><g transform="matrix(218.92582,0,0,218.92582,1381.66469,521.79538)"><path d="M0.203,-0.191c0.012,-0.089 0.02,-0.187 0.075,-0.258c0.028,-0.035 0.062,-0.037 0.095,-0.053c0.066,-0.034 0.052,-0.135 -0.02,-0.151c-0.069,-0.015 -0.154,0.076 -0.193,0.135c-0.026,-0.058 -0.087,-0.104 -0.125,-0.053c-0.011,0.014 -0.007,0.036 0.009,0.042c0.028,0.011 0.03,0.053 0.031,0.082c0.002,0.085 -0.019,0.168 -0.022,0.252c-0.004,0.103 0.136,0.106 0.15,0.004Z" style="fill:#60d752;fill-rule:nonzero;"/></g></g></g><path id="hand" d="M597.527,346.822c0.407,0.1 0.813,0.2 1.22,0.299c1.297,-2.254 5.645,-23.698 -3.156,-49.35c-12.918,-37.652 -61.315,-53.71 -47.232,-70.519c12.533,-14.959 16.494,-25.845 41.904,-88.517c31.394,-77.432 42.027,-101.769 63.167,-97.526c30.853,6.191 8.771,46.11 -16.21,117.662c-35.989,103.084 32.617,-25.881 75.665,-87.045c26.297,-37.364 54.434,-19.151 49.937,5.739c-4.046,22.395 -79.324,133.795 -80.626,149.36c-1.546,18.495 54.983,-53.831 91.559,-91.688c23.866,-24.702 39.807,-8.073 42.39,2.328c5.639,22.706 -50.622,73.902 -83.624,124.355c-0.723,1.105 -16.825,25.721 1.913,16.399c27.127,-13.495 76.696,-73.768 97.525,-52.563c18.268,18.599 -14.958,41.539 -58.572,83.856c-56.944,55.25 -53.205,58.744 -85.808,90.229c-34.825,33.631 -77.987,43.665 -112.925,36.615c-103.928,-20.971 -107.588,-140.366 -109.112,-154.847c-10.196,-96.915 -41.176,-124.997 -6.92,-130.722c39.205,-6.552 51.822,46.472 60.327,69.286c20.752,55.665 42.998,39.436 64.499,75.115c15.164,25.163 13.974,43.932 14.079,51.534Z" style="fill:#60d752;"/></g></svg>